<?xml version="1.0" encoding="utf-8"?>
<!-- Generator: Adobe Illustrator 23.1.0, SVG Export Plug-In . SVG Version: 6.00 Build 0)  -->
<svg version="1.1" id="Слой_1" xmlns="http://www.w3.org/2000/svg" xmlns:xlink="http://www.w3.org/1999/xlink" x="0px" y="0px"
	 viewBox="0 0 1771 2008.5" style="enable-background:new 0 0 1771 2008.5;" xml:space="preserve">
<style type="text/css">
	.st0{fill:#212529;}
	.st1{fill:#394047;}
	.st2{fill:none;}
	.st3{fill:#FFC451;}
</style>
<g>
	<path class="st0" d="M161.2,1807.7L0,0h1771l-161.3,1807.4l-725.2,201.1L161.2,1807.7z"/>
	<path class="st1" d="M885.5,1854.8l586-162.5l137.9-1544.5H885.5V1854.8z"/>
</g>
<line class="st2" x1="1440.2" y1="-7187.3" x2="1440.2" y2="9195.8"/>
<path class="st3" d="M1379.9,1102c-40.1-55.6-100.9-94.6-182.4-116.8c59.3-26.9,104-61.5,134.3-103.7
	c30.2-42.1,45.4-94.8,45.4-158.1c0-58.5-10.2-107.7-30.6-147.6c-20.4-39.8-49.1-71.7-86.1-95.7c-37-24-81.5-41.3-133.3-51.8
	c-51.8-10.5-109.3-15.8-172.2-15.8H332.5v1254.1h640.9c59.3,0,117-7,173.2-21.1c56.2-14,106.2-35.8,150-65
	c43.8-29.3,78.7-67.1,104.6-113.2c25.9-46.3,38.9-101,38.9-164.3C1440.1,1224.6,1420.1,1157.6,1379.9,1102z M623.2,920.2V627h272.3
	c25.9,0,50.9,2.1,75,6.2c24.1,4.1,45.4,11.4,63.9,21.9c18.5,10.5,33.3,25.1,44.4,43.9c11.1,18.8,16.7,42.8,16.7,72
	c0,52.7-16.7,90.8-50,114.2c-33.3,23.4-75.9,35.1-127.8,35.1H623.2L623.2,920.2z M1131.7,1368.1c-11.7,21.1-27.5,37.7-47.2,50.1
	c-19.7,12.3-42.6,21.1-68.5,26.4c-25.9,5.2-53.1,7.9-81.5,7.9H623.2v-344.3H940c63,0,113.6,13.8,151.9,41.3
	c38.3,27.5,57.4,73.5,57.4,137.9C1149.3,1320.1,1143.4,1347,1131.7,1368.1z"/>
</svg>
