<?xml version="1.0" encoding="utf-8"?>
<!-- Generator: Adobe Illustrator 23.1.0, SVG Export Plug-In . SVG Version: 6.00 Build 0)  -->
<svg version="1.1" id="Слой_1" xmlns="http://www.w3.org/2000/svg" xmlns:xlink="http://www.w3.org/1999/xlink" x="0px" y="0px"
	 viewBox="0 0 1771 2008.5" style="enable-background:new 0 0 1771 2008.5;" xml:space="preserve">
<style type="text/css">
	.st0{fill:#212529;}
	.st1{fill:#394047;}
	.st2{fill:none;}
	.st3{fill:#FFC451;}
</style>
<g>
	<path class="st0" d="M161.2,1807.7L0,0h1771l-161.3,1807.4l-725.2,201.1L161.2,1807.7z"/>
	<path class="st1" d="M885.5,1854.8l586-162.5l137.9-1544.5H885.5V1854.8z"/>
</g>
<line class="st2" x1="1440.2" y1="-7187.3" x2="1440.2" y2="9195.8"/>
<path class="st3" d="M886.9,1435.9h-1l-246.1-66.6l-15.7-176.6H402.4l31,347.6l452.7,126.2h1.3v-230.7H886.9z"/>
<path class="st3" d="M1158.8,1072.8l-26.6,296.3l-246.5,66.6v230.7l453-125.8l3.3-37.4l38.5-430.4L1158.8,1072.8L1158.8,1072.8z"/>
<polygon class="st3" points="886.5,412.9 886.5,634.3 352.9,634.3 348.3,584.6 338.2,472.3 333,412.9 "/>
<polygon class="st3" points="885.7,861.2 885.7,1082.6 642.4,1082.6 638.1,1032.9 628.1,920.6 622.8,861.2 885.6,861.2 "/>
<path class="st3" d="M885.7,860.9h292.4l20.1-226.7H885.7V412.5h554.5l-5.3,59.4l-55.8,610.7H885.7V860.9z"/>
<polygon class="st3" points="841.6,412.9 841.6,541.5 841.6,634.3 911.3,634.2 911.3,541.5 911.3,412.9 "/>
<polygon class="st3" points="856.3,861.2 856.3,938.7 856.3,1082.6 922.1,1082.6 922.1,861.2 "/>
<polygon class="st3" points="825.5,1419.6 819.2,1575.1 825.5,1649.7 885.7,1666.4 918.5,1657.3 906.6,1468.3 885.7,1435.7 "/>
</svg>
