<?xml version="1.0" encoding="utf-8"?>
<!-- Generator: Adobe Illustrator 23.1.0, SVG Export Plug-In . SVG Version: 6.00 Build 0)  -->
<svg version="1.1" id="Слой_1" xmlns="http://www.w3.org/2000/svg" xmlns:xlink="http://www.w3.org/1999/xlink" x="0px" y="0px"
	 viewBox="0 0 1771 2008.5" style="enable-background:new 0 0 1771 2008.5;" xml:space="preserve">
<style type="text/css">
	.st0{fill:#212529;}
	.st1{fill:#394047;}
	.st2{fill:#FFC451;}
	.st3{fill:none;}
</style>
<g>
	<path class="st0" d="M161.2,1807.7L0,0h1771l-161.3,1807.4l-725.2,201.1L161.2,1807.7z"/>
	<path class="st1" d="M885.5,1854.8l586-162.5l137.9-1544.5H885.5V1854.8z"/>
	<g>
		<path class="st2" d="M886.2,1082.3V860.8H593.1L572.8,634h313.3V412.5H330.9l5.3,59.4l54.4,610.3 M886.2,1436l-1,0.3l-246.6-66.6
			L622.8,1193H400.5l31.1,347.7l453.6,125.9l1-0.3V1436z"/>
		<polygon class="st2" points="885.4,860.8 885.4,1082.3 1158.2,1082.3 1132.4,1369.5 885.4,1436.2 885.4,1666.5 1339.5,1540.8 
			1342.8,1503.3 1394.8,920.2 1400.2,860.8 1340.6,860.8 		"/>
		<polygon class="st2" points="885.4,412.5 885.4,634 1420.4,634 1424.8,584.2 1434.9,471.9 1440.2,412.5 		"/>
	</g>
</g>
<line class="st3" x1="1440.2" y1="-7187.3" x2="1440.2" y2="9195.8"/>
<polygon class="st2" points="819.9,460.3 819.9,412.5 974,412.5 974,612 964.7,634 819.9,634 "/>
<polygon class="st2" points="859.4,860.8 859.4,972.8 859.4,1082.3 923.7,1082.3 923.7,971.6 923.7,860.8 "/>
<polygon class="st2" points="851.9,1427.3 846.7,1655.9 885.4,1666.5 920.7,1656.7 920.7,1447.4 885.4,1436.2 "/>
</svg>
