<?xml version="1.0" encoding="utf-8"?>
<!-- Generator: Adobe Illustrator 23.1.0, SVG Export Plug-In . SVG Version: 6.00 Build 0)  -->
<svg version="1.1" id="Слой_1" xmlns="http://www.w3.org/2000/svg" xmlns:xlink="http://www.w3.org/1999/xlink" x="0px" y="0px"
	 viewBox="0 0 1771 2008.5" style="enable-background:new 0 0 1771 2008.5;" xml:space="preserve">
<style type="text/css">
	.st0{fill:#212529;}
	.st1{fill:#394047;}
	.st2{fill:none;}
	.st3{fill:#FFC451;}
	.st4{opacity:0.986;fill:#FFC451;fill-opacity:0.9216;enable-background:new    ;}
</style>
<g>
	<path class="st0" d="M161.2,1807.7L0,0h1771l-161.3,1807.4l-725.2,201.1L161.2,1807.7z"/>
	<path class="st1" d="M885.5,1854.8l586-162.5l137.9-1544.5H885.5V1854.8z"/>
</g>
<line class="st2" x1="1440.2" y1="-7187.3" x2="1440.2" y2="9195.8"/>
<path class="st3" d="M332.5,1666.6"/>
<path id="path5157" class="st4" d="M333.6,1517.6l-0.6-223.9c0,0,197.3,64.9,309.1,98.5l1.9-978.9h159.2v1252.4L333.6,1517.6
	L333.6,1517.6z"/>
<g>
	<polygon class="st3" points="1426.5,635.7 1440.2,412.5 927.5,415.4 934.4,1228 1244.1,1166 1239.7,1346.9 927.5,1443.9 
		930.6,1665.7 1362.1,1534.4 1362.1,1534.4 1405.2,922.4 1086.7,964 1086.7,637.2 	"/>
</g>
</svg>
